<svg xmlns="http://www.w3.org/2000/svg" width="5208" height="2793.333" preserveAspectRatio="xMidYMid meet" version="1.0" viewBox="0 0 3906 2095"><metadata>Created by potrace 1.16, written by Peter Selinger 2001-2019</metadata><g fill="#000" stroke="none"><path d="M66 7149 c-2 -8 -7 -691 -10 -1519 -4 -955 -10 -1508 -16 -1514 -7 -7 -10 -744 -10 -2063 l0 -2053 19500 0 19500 0 0 2604 0 2603 -137 -5 c-170 -6 -317 10 -420 44 -111 37 -166 31 -309 -33 -182 -82 -267 -149 -335 -266 -22 -37 -51 -75 -65 -84 -69 -45 -293 -80 -569 -89 -285 -10 -376 19 -545 171 -52 47 -162 132 -245 188 -82 56 -175 127 -205 157 -102 102 -148 227 -171 465 -11 105 -10 129 5 196 9 41 26 92 37 113 11 21 19 40 17 41 -14 14 -202 38 -328 42 -314 11 -365 -20 -778 -474 -139 -153 -195 -207 -230 -224 -62 -31 -185 -36 -312 -14 -135 23 -347 30 -466 16 -218 -27 -379 -78 -619 -199 -170 -85 -257 -113 -347 -114 -58 0 -80 6 -157 41 -49 23 -111 44 -138 47 -47 6 -299 -22 -477 -52 -103 -18 -141 -35 -215 -99 -30 -25 -72 -55 -93 -66 -120 -61 -368 -14 -550 103 -134 86 -224 204 -284 373 -30 85 -93 130 -153 109 -17 -6 -93 -93 -214 -244 -226 -283 -409 -483 -662 -722 -377 -359 -630 -546 -920 -684 -209 -99 -348 -135 -595 -154 -80 -6 -275 -27 -435 -47 -245 -31 -320 -37 -485 -37 -164 0 -211 4 -300 23 -133 29 -279 76 -505 163 -274 107 -300 102 -418 -80 -35 -54 -77 -106 -93 -117 -38 -25 -126 -30 -280 -16 -287 26 -458 122 -550 307 -32 65 -44 79 -69 86 -43 11 -90 -5 -186 -63 -339 -208 -721 -264 -1064 -155 -124 39 -141 55 -210 192 -50 99 -67 124 -103 149 -42 29 -48 30 -155 30 -103 0 -122 -3 -228 -38 -141 -46 -342 -143 -466 -225 -50 -33 -149 -109 -220 -169 -201 -170 -306 -232 -492 -292 -150 -49 -259 -65 -441 -65 -281 1 -419 44 -590 182 -45 37 -114 93 -153 124 -212 172 -406 192 -551 58 -25 -24 -69 -75 -98 -114 -124 -171 -163 -218 -208 -251 -64 -47 -106 -61 -229 -74 -126 -14 -169 -32 -246 -103 -112 -102 -115 -103 -309 -63 -178 36 -359 90 -438 132 -100 52 -136 99 -245 320 -52 106 -96 193 -98 193 -1 0 -42 -55 -91 -123 -260 -361 -547 -529 -909 -531 -192 -1 -225 11 -340 127 -162 163 -302 369 -445 652 -105 208 -94 201 -355 246 -157 28 -205 32 -370 33 -162 1 -208 -2 -310 -23 -66 -13 -161 -31 -212 -41 -50 -10 -114 -30 -143 -44 -60 -30 -80 -32 -120 -11 -59 31 -72 78 -81 295 -7 184 -13 226 -40 293 -15 35 -14 37 -161 -141 -234 -281 -476 -455 -998 -715 -299 -150 -501 -223 -586 -213 -59 7 -91 19 -146 54 -50 33 -82 82 -118 187 -52 146 -93 185 -197 185 -64 0 -94 -15 -121 -60 l-17 -27 -70 14 c-196 40 -450 196 -661 407 -84 85 -104 124 -144 280 -35 140 -53 175 -101 199 -56 27 -206 34 -307 13 -98 -20 -153 -42 -230 -94 -146 -100 -277 -143 -437 -145 -109 -1 -185 13 -255 48 -54 28 -69 44 -148 160 -63 92 -103 128 -163 145 -19 6 -99 10 -179 10 -245 1 -276 17 -362 190 -63 126 -96 163 -159 180 -73 20 -129 2 -294 -96 -177 -104 -328 -137 -722 -155 -267 -13 -606 -2 -879 27 -95 10 -203 14 -299 12 -137 -4 -158 -7 -243 -36 -136 -47 -145 -43 -297 113 -191 196 -215 204 -640 215 -170 5 -366 16 -435 24 -235 30 -240 30 -240 15 0 -42 -65 -146 -133 -214 -111 -111 -196 -145 -457 -184 -232 -36 -270 -48 -458 -143 -223 -113 -286 -133 -401 -125 -47 3 -122 15 -165 26 -91 23 -89 24 -182 -52 -124 -100 -239 -137 -439 -137 -82 0 -150 -6 -185 -15 -30 -8 -80 -15 -110 -15 -86 0 -597 68 -628 84 -58 30 -77 66 -97 186 -19 122 -52 189 -163 335 -50 67 -96 134 -102 150 -6 17 -14 86 -17 155 -5 122 -6 127 -50 223 -53 115 -53 137 1 225 94 155 126 259 106 347 -18 81 -50 125 -115 158 -46 23 -239 63 -487 102 -368 58 -533 96 -693 160 -119 48 -179 83 -305 175 -58 43 -120 85 -138 94 -19 10 -85 23 -155 30 -126 13 -174 29 -201 68 -12 16 -16 18 -20 7z" transform="translate(0.000000,2095.000000) scale(0.100000,-0.100000)"/></g></svg>